<?xml version="1.0" encoding="UTF-8"?>
<svg id="_图层_1" data-name="图层 1" xmlns="http://www.w3.org/2000/svg" viewBox="0 0 544.24 544.24">
  <circle fill="#1e1e1e" cx="272.12" cy="272.12" r="272.12"/>
  <path fill="#b9eb10" d="M110.49,444.14l95.71-130.92h38.18l-70.41,99.18,140.38.05c25.17-1.11,44.55-6.16,61.46-25.82l75.49-104.13-.1-1.96-79.85-108.68c-9.44-9.79-31.52-21.3-45.16-21.3h-169.1l73.39,101.16h-40.66L94.63,118.84l230.64-.05c33.58,2.41,58.79,16.74,79.19,42.8,29.8,38.08,55.9,79.5,85.77,117.59l.92,2.65-93,128.12c-13.55,15.43-45.17,34.19-65.98,34.19H110.49Z"/>
  <path fill="#b9eb10" d="M218.6,387.61l63.48-89.26h-124.47c-15.49,28.8-60.79,21-63.02-12.35-2.5-37.3,43.77-50.16,63.02-19.38h123.48l-28.75-28.28c-.34-2.1.33-1.17,1.36-1.57,4.46-1.75,8.23-2.75,12.44-5.44,4.46-2.85,7-6.62,11.35-9.27l67.01,61.78c-11.74,12.69-27.95,23.34-39.12,36.32-9.28,10.79-16.9,24.78-26.27,35.72h46.12c1.21,0,6.24-3.34,7.42-4.48l50.13-68.91c.55-1.25-1.92-4.1-2.69-5.28-11.76-17.91-32.5-48.3-46.46-63.62-3.55-3.89-5.82-6-11.32-6.53-18.1-1.74-38.96,1.41-57.37.03-18.21,27.35-61.19,7.8-50.33-24.32,7.82-23.11,35.85-23.95,51.14-7.42,31.2,2.73,69.42-9.47,92.69,17.4l64.01,87.81v2.87s-64.47,87.34-64.47,87.34c-6.11,7.27-21.25,16.85-30.76,16.85h-108.6ZM238.15,181.52c-11.38,2.58-9.74,21.43,3.72,20.66,15.48-.88,10.74-23.94-3.72-20.66ZM125.12,269.79c-13.38,2.57-13.89,23.99-.27,25.6,22.68,2.68,18.53-29.11.27-25.6Z"/>
</svg>
